Coordinates
version=1
nRows=6
nColumns=63
inDegrees=yes

Units are S.I. units (second, meters, Newtons, ...)
If the header above contains a line with 'inDegrees', this indicates whether rotational values are in degrees (yes) or radians (no).

endheader
time	pelvis_tilt	pelvis_list	pelvis_rotation	pelvis_tx	pelvis_ty	pelvis_tz	hip_flexion_r	hip_adduction_r	hip_rotation_r	knee_angle_r	knee_angle_r_beta	ankle_angle_r	subtalar_angle_r	mtp_angle_r	hip_flexion_l	hip_adduction_l	hip_rotation_l	knee_angle_l	knee_angle_l_beta	ankle_angle_l	subtalar_angle_l	mtp_angle_l	L5_S1_Flex_Ext	L5_S1_Lat_Bending	L5_S1_axial_rotation	L4_L5_Flex_Ext	L4_L5_Lat_Bending	L4_L5_axial_rotation	L3_L4_Flex_Ext	L3_L4_Lat_Bending	L3_L4_axial_rotation	L2_L3_Flex_Ext	L2_L3_Lat_Bending	L2_L3_axial_rotation	L1_L2_Flex_Ext	L1_L2_Lat_Bending	L1_L2_axial_rotation	L1_T12_Flex_Ext	L1_T12_Lat_Bending	L1_T12_axial_rotation	Abs_r3	Abs_r2	Abs_r1	Abs_t1	Abs_t2	neck_flexion	neck_bending	neck_rotation	arm_flex_r	arm_add_r	arm_rot_r	elbow_flex_r	pro_sup_r	wrist_flex_r	wrist_dev_r	arm_flex_l	arm_add_l	arm_rot_l	elbow_flex_l	pro_sup_l	wrist_flex_l	wrist_dev_l
      1.86666667	      0.44071480	     -7.65302072	     96.06436268	      0.28373117	      0.83795522	      0.81719194	      1.16726389	      1.36061493	      6.20625551	      8.51371844	      0.14859242	     24.88569482	     -2.16379315	      0.00000000	     -0.53181494	     -1.17417040	     -7.36748260	      3.87368505	      0.06760856	     26.73005303	      3.30991817	      0.00000000	     -0.21212446	     -0.19629531	     -2.19643673	     -0.39393633	     -0.26107277	     -2.33371403	     -0.34849927	     -0.47727243	     -2.33371403	     -0.24243704	     -0.47727243	     -1.92188214	     -0.19697877	     -0.40028541	     -1.78460485	     -0.12120792	     -0.30406144	     -1.64732755	     -1.51518380	     -2.22053186	    -12.21592218	      0.00000000	      0.00000000	     14.92648985	      1.45923035	    -22.37402316	     29.41229053	     -7.46181945	     -2.68017226	    144.61472664	     89.33863436	     10.03677062	     26.28706124	     -3.50726301	    -14.30842966	     31.59136637	     25.97466768	     68.93262651	     -7.85515341	     -9.32345201
      1.88333333	      0.56641694	     -7.61605418	     96.49398172	      0.28345150	      0.83776439	      0.81666355	      0.98616567	      1.53436125	      6.51239522	      8.34626616	      0.14566982	     24.59594423	     -3.29050718	      0.00000000	     -0.48509071	     -1.34963402	     -7.05805740	      3.98968993	      0.06963323	     26.87886344	      3.37435602	      0.00000000	     -0.22350503	     -0.16844104	     -2.11727480	     -0.41507119	     -0.22402658	     -2.24960447	     -0.36719641	     -0.40954754	     -2.24960447	     -0.25544390	     -0.40954754	     -1.85261545	     -0.20754677	     -0.34348497	     -1.72028577	     -0.12771077	     -0.26091517	     -1.58795610	     -1.59647406	     -1.90543873	    -11.77564725	      0.00000000	      0.00000000	     15.19106928	      0.66566913	    -22.99544849	     29.07657139	     -7.34320570	     -3.35195138	    145.44130678	     89.33380004	     11.18424153	     27.27054726	     -2.97565895	    -14.18095470	     32.49493389	     25.70186461	     69.04029958	     -7.55004631	     -8.85580461
      1.90000000	      0.63711001	     -7.61941358	     96.78872116	      0.28335587	      0.83734175	      0.81620877	      0.81584488	      1.69989985	      7.65512190	      8.08689108	      0.14114288	     24.14497205	     -5.38961319	      0.00000000	     -0.38939292	     -1.43204618	     -6.07765522	      4.14382000	      0.07232330	     26.90474255	      2.34010001	      0.00000000	     -0.22938625	     -0.14454866	     -2.02384186	     -0.42599320	     -0.19224971	     -2.15033198	     -0.37685867	     -0.35145560	     -2.15033198	     -0.26216554	     -0.35145560	     -1.77086163	     -0.21300807	     -0.29476362	     -1.64437151	     -0.13107130	     -0.22390587	     -1.51788139	     -1.63848303	     -1.63516330	    -11.25600127	      0.00000000	      0.00000000	     15.69393570	      0.06083933	    -23.29192079	     29.10073770	     -6.79275682	     -4.38893119	    146.09728509	     89.32625048	     14.10382634	     28.64610039	     -2.39450392	    -14.18933425	     34.30024800	     25.52289476	     67.93455061	     -7.63527356	     -8.72071611
      1.91666667	      0.77231318	     -7.64819068	     97.00092203	      0.28317955	      0.83673716	      0.81568104	      0.72775073	      1.80734828	      7.20222685	      7.89655583	      0.13782090	     24.31296959	     -4.90933225	      0.00000000	     -0.27087540	     -1.60022809	     -6.06204707	      4.32093549	      0.07541455	     27.22602169	      2.57794987	      0.00000000	     -0.22762726	     -0.10996385	     -1.90531886	     -0.42272659	     -0.14625192	     -2.02440129	     -0.37396883	     -0.26736610	     -2.02440129	     -0.26015520	     -0.26736610	     -1.66715400	     -0.21137468	     -0.22423828	     -1.54807157	     -0.13006622	     -0.17033400	     -1.42898915	     -1.62591878	     -1.24393302	    -10.59681191	      0.00000000	      0.00000000	     16.21250423	     -0.46069913	    -23.37905591	     29.23038155	     -6.39614020	     -5.01022583	    146.78074644	     89.29924661	     15.41501337	     29.93088563	     -1.79424524	    -14.02820581	     35.66582231	     25.14799355	     68.15040385	     -7.65971931	     -8.85919100
      1.93333333	      0.96556099	     -7.65084150	     97.26154651	      0.28275755	      0.83612630	      0.81503781	      0.56779511	      2.01850160	      7.45732113	      7.62577115	      0.13309481	     24.18771194	     -5.50365712	      0.00000000	     -0.17471925	     -1.81604956	     -5.75737816	      4.51191672	      0.07874780	     27.51413304	      2.51394225	      0.00000000	     -0.22609339	     -0.06974932	     -1.81876163	     -0.41987803	     -0.09276659	     -1.93243423	     -0.37144883	     -0.16958849	     -1.93243423	     -0.25840213	     -0.16958849	     -1.59141642	     -0.20995032	     -0.14223281	     -1.47774382	     -0.12918976	     -0.10804169	     -1.36407122	     -1.61496247	     -0.78901824	    -10.11540654	      0.00000000	      0.00000000	     16.52780231	     -1.12394322	    -23.64495131	     29.63521044	     -5.69955288	     -6.36684218	    147.40700806	     89.27340477	     19.46181802	     31.35530574	     -1.26287270	    -13.93358127	     37.42196430	     24.98376705	     67.39273232	     -7.94962176	     -8.90258760
      1.95000000	      1.16593712	     -7.62794616	     97.49555167	      0.28226190	      0.83553721	      0.81438834	      0.36108845	      2.22764705	      7.65480344	      7.30412293	      0.12748099	     24.07532098	     -5.91499044	      0.00000000	     -0.12304347	     -1.98917156	     -4.60847613	      4.65786228	      0.08129503	     27.59655038	      1.23088695	      0.00000000	     -0.22406441	     -0.02905014	     -1.75842277	     -0.41611001	     -0.03863668	     -1.86832419	     -0.36811541	     -0.07063251	     -1.86832419	     -0.25608321	     -0.07063251	     -1.53861992	     -0.20806621	     -0.05923904	     -1.42871850	     -0.12803040	     -0.04499866	     -1.31881708	     -1.60046964	     -0.32862097	     -9.77981992	      0.00000000	      0.00000000	     16.80049506	     -1.74775466	    -23.68844802	     29.91032884	     -5.19666198	     -7.36438197	    148.05272577	     89.23311438	     22.34000804	     32.32914662	     -0.67217882	    -13.89265676	     40.02609637	     24.66211220	     65.64951954	     -8.29990160	     -9.58418077
